<svg width="97" height="39" xmlns="http://www.w3.org/2000/svg"><g fill="none" fill-rule="evenodd"><path d="M42.847 14.684c0-2.42 2.072-5.677 4.625-5.677h1.3c2.56 0 4.631 3.257 4.631 5.677" stroke="#000" stroke-width="2.625" stroke-linejoin="round"/><path d="M43.609 12.025c-.006.137-.021.269-.03.406.014-.137.022-.272.03-.406" fill="#FEFEFE"/><path d="M43.601 12.167c-.008.09-.016.175-.02.264.007-.089.015-.177.02-.264m.008-.142l-.008.142.008-.142" fill="#231F20"/><path d="M43.588 11.816c-.018-.835-.109-1.625-.32-2.333a7.855 7.855 0 0 0-.462-1.201 6.316 6.316 0 0 0-.575-.995c-.042-.059-.075-.122-.117-.178a5.862 5.862 0 0 0-.458-.554c-.312-.337-.598-.713-.99-.998a9.316 9.316 0 0 0-.874-.64c-2.109-1.393-4.777-2.043-7.174-2.043l-2.335-.066-1.877.005-1.02-.005c-2.244.025-4.487.015-6.726.094-2.564.088-5.094.419-7.554 1.165-4.89 1.483-7.951 4.6-8.874 9.572-.78 4.193-.312 8.29 1.172 12.28 1.186 3.178 3.004 5.961 5.892 7.896 5.032 3.37 10.461 3.639 16.028 1.5 4.29-1.645 7.645-4.55 10.37-8.12 3.25-4.252 5.598-8.863 5.886-14.256l.019-.635-.01-.488z" stroke="#000" stroke-width="3.938" stroke-linejoin="round"/><path d="M52.613 12.066c.005.137.02.269.028.406-.013-.14-.02-.272-.028-.406" fill="#FEFEFE"/><path d="M52.62 12.208c.005.086.01.175.018.264-.002-.089-.01-.175-.018-.264m-.008-.142l.008.142-.008-.142" fill="#231F20"/><path d="M52.633 11.858c.018-.836.11-1.626.32-2.334.125-.421.275-.823.46-1.2a6.33 6.33 0 0 1 .577-.996c.04-.059.076-.122.117-.178.14-.193.294-.378.455-.554.315-.337.601-.713.994-.997.273-.234.574-.442.873-.64 2.109-1.394 4.774-2.044 7.174-2.044l2.335-.069 1.878.008 1.016-.005c2.247.025 4.488.015 6.73.091 2.56.09 5.09.42 7.553 1.168 4.888 1.483 7.949 4.601 8.874 9.573.78 4.192.312 8.29-1.175 12.279-1.183 3.179-3 5.961-5.89 7.896-5.033 3.37-10.46 3.636-16.027 1.5-4.29-1.644-7.644-4.55-10.37-8.12-3.25-4.255-5.598-8.863-5.886-14.256l-.018-.635.01-.487zM.134 13.334h4.428M91.798 13.334h4.428" stroke="#000" stroke-width="3.938" stroke-linejoin="round"/></g></svg>